<?xml version="1.0" standalone="no"?><!DOCTYPE svg PUBLIC "-//W3C//DTD SVG 1.1//EN" "http://www.w3.org/Graphics/SVG/1.1/DTD/svg11.dtd"><svg class="icon" width="200px" height="200.00px" viewBox="0 0 1024 1024" version="1.1" xmlns="http://www.w3.org/2000/svg"><path d="M512.70710678 953.39035147c-35.34119692 0-64.00023477-28.65903784-64.00023476-64.00023477l0-223.99728614c0-35.34119692 28.65903784-64.00023477 64.00023476-64.00023477 35.34119692 0 64.00023477 28.65903784 64.00023477 64.00023477L576.70734155 889.3901167c0 35.35533906-28.65196677 64.00730583-64.00023477 64.00023477z" fill="#F5CB95" /><path d="M672.70415816 697.39648348L352.7100554 697.39648348c-35.34119692 0-64.00023477-28.65903784-64.00023476-64.00023477L288.70982064 281.39849304c0-123.71540244 100.28895478-224.00435721 223.99728614-223.99728615 123.71540244 0 224.00435721 100.28895478 223.99728615 223.99728615l0 351.99775567c0.00707107 35.34826799-28.64489571 64.00023477-64.00023477 64.00023477z" fill="#F5BBD1" /><path d="M384.70663725 633.39624871c-17.67766953 0-32.00365292-14.32598339-31.99658185-31.99658185l0-351.99775567c0-17.67766953 14.32598339-32.00365292 31.99658185-31.99658185 17.67766953 0 32.00365292 14.32598339 31.99658185 31.99658185L416.71029017 601.39259579c0 17.67766953-14.32598339 32.00365292-32.00365292 32.00365292zM512.70710678 633.39624871c-17.67766953 0-32.00365292-14.32598339-31.99658185-31.99658185L480.71052493 185.39460535c0-17.67766953 14.32598339-32.00365292 31.99658185-31.99658184 17.67766953 0 32.00365292 14.32598339 31.99658185 31.99658184L544.70368863 601.39966686c0.00707107 17.67059846-14.31891232 31.99658185-31.99658185 31.99658185zM640.70757631 633.39624871c-17.67766953 0-32.00365292-14.32598339-31.99658185-31.99658185l0-351.99775567c0-17.67766953 14.32598339-32.00365292 31.99658185-31.99658185 17.67766953 0 32.00365292 14.32598339 31.99658185 31.99658185l0 351.99775567c0.00707107 17.67059846-14.31891232 31.99658185-31.99658185 31.99658185z" fill="#EE71A0" /></svg>