<?xml version="1.0" standalone="no"?><!DOCTYPE svg PUBLIC "-//W3C//DTD SVG 1.1//EN" "http://www.w3.org/Graphics/SVG/1.1/DTD/svg11.dtd"><svg class="icon" width="200px" height="200.00px" viewBox="0 0 1024 1024" version="1.1" xmlns="http://www.w3.org/2000/svg"><path d="M858.3 128.3H659.4c-6.8 0-13.3 2.7-18.1 7.5-4.8 4.8-7.5 11.3-7.5 18.1 0 6.8 2.7 13.3 7.5 18.1 4.8 4.8 11.3 7.5 18.1 7.5h135.7L626 336.5c-6.7 6.2-9.6 15.5-7.5 24.5 2 8.9 8.7 16.1 17.4 18.7 8.7 2.7 18.2 0.5 24.9-5.7l171.9-159.8v143.3c0 6.8 2.7 13.3 7.5 18.1 4.8 4.8 11.3 7.5 18.1 7.5 6.8 0 13.3-2.7 18.1-7.5 4.8-4.8 7.5-11.3 7.5-18.1V153.8c0-14.1-11.5-25.5-25.6-25.5zM432.6 336.5L263.5 179.4h135.7c6.8 0 13.3-2.7 18.1-7.5 4.8-4.8 7.5-11.3 7.5-18.1 0-6.8-2.7-13.3-7.5-18.1-4.8-4.8-11.3-7.5-18.1-7.5H200.3c-6.8 0-13.3 2.7-18.1 7.5-4.8 4.8-7.5 11.3-7.5 18.1v203.7c0 6.8 2.7 13.3 7.5 18.1 4.8 4.8 11.3 7.5 18.1 7.5 6.8 0 13.3-2.7 18.1-7.5 4.8-4.8 7.5-11.3 7.5-18.1V214.2L397.8 374c10.4 9.6 26.5 9 36.2-1.3 9.5-10.4 8.9-26.6-1.4-36.2z m425.7 247c-6.8 0-13.3 2.7-18.1 7.5-4.8 4.8-7.5 11.3-7.5 18.1v143.3L660.9 592.6c-10.3-9.6-26.5-9-36.1 1.3-9.6 10.3-9 26.5 1.3 36.1l169.1 157.1H659.4c-6.8 0-13.3 2.7-18.1 7.5-4.8 4.8-7.5 11.3-7.5 18.1 0 6.8 2.7 13.3 7.5 18.1 4.8 4.8 11.3 7.5 18.1 7.5h198.9c6.8 0 13.3-2.7 18.1-7.5 4.8-4.8 7.5-11.3 7.5-18.1V609.1c0-6.8-2.7-13.3-7.5-18.1-4.8-4.8-11.3-7.5-18.1-7.5z m-460.5 9.1L225.9 752.4V609.1c0-6.8-2.7-13.3-7.5-18.1-4.8-4.8-11.3-7.5-18.1-7.5-6.8 0-13.3 2.7-18.1 7.5-4.8 4.8-7.5 11.3-7.5 18.1v203.7c0 6.8 2.7 13.3 7.5 18.1 4.8 4.8 11.3 7.5 18.1 7.5h198.9c6.8 0 13.3-2.7 18.1-7.5 4.8-4.8 7.5-11.3 7.5-18.1 0-6.8-2.7-13.3-7.5-18.1-4.8-4.8-11.3-7.5-18.1-7.5H263.5L432.6 630c10.3-9.6 10.9-25.8 1.3-36.1s-25.8-10.9-36.1-1.3z m0 0M399.2 842.3H200.3c-7.9 0-15.3-3.1-20.9-8.7-5.6-5.6-8.7-13-8.7-20.9V609.1c0-7.9 3.1-15.3 8.7-20.9 5.6-5.6 13-8.7 20.9-8.7s15.3 3.1 20.9 8.7c5.6 5.6 8.7 13 8.7 20.9v134.1l171.9-159.8v1.5c4.4-2.3 9.4-3.4 14.5-3.2 7.9 0.3 15.2 3.6 20.6 9.4 5.4 5.8 8.2 13.3 7.9 21.2-0.3 7.9-3.6 15.2-9.4 20.6L273.7 783.2h125.5c7.9 0 15.3 3.1 20.9 8.7 5.6 5.6 8.7 13 8.7 20.9 0 7.9-3.1 15.3-8.7 20.9-5.6 5.5-13 8.6-20.9 8.6zM200.3 587.5c-5.7 0-11.2 2.3-15.3 6.3-4.1 4.1-6.3 9.5-6.3 15.3v203.7c0 5.8 2.2 11.2 6.3 15.2 4.1 4.1 9.5 6.3 15.2 6.3h198.9c5.8 0 11.2-2.2 15.2-6.3 4.1-4.1 6.3-9.5 6.3-15.2 0-5.8-2.2-11.2-6.3-15.2-4.1-4.1-9.5-6.3-15.2-6.3H253.3l176.5-164.1c4.2-3.9 6.7-9.3 6.9-15 0.2-5.8-1.8-11.3-5.8-15.5-3.9-4.2-9.3-6.7-15-6.9-5.8-0.2-11.3 1.8-15.5 5.8l-6.7 6.2-171.8 159.7V609.1c0-5.8-2.2-11.2-6.3-15.3-4.1-4-9.5-6.3-15.3-6.3z m658 254.8H659.4c-7.9 0-15.3-3.1-20.9-8.7-5.6-5.6-8.7-13-8.7-20.9 0-7.9 3.1-15.3 8.7-20.9 5.6-5.6 13-8.7 20.9-8.7h125.5L623.3 633c-11.9-11.1-12.6-29.8-1.5-41.8 5.4-5.8 12.7-9.1 20.6-9.4 7.9-0.3 15.4 2.5 21.2 7.9l165.2 153.5V609.1c0-7.9 3.1-15.3 8.7-20.9 5.6-5.6 13-8.7 20.9-8.7 7.9 0 15.3 3.1 20.9 8.7 5.5 5.5 8.7 13.1 8.7 20.9v203.6c0 7.9-3.1 15.3-8.7 20.9-5.6 5.6-13.1 8.7-21 8.7z m-198.9-51.1c-5.8 0-11.2 2.2-15.2 6.3-4.1 4.1-6.3 9.5-6.3 15.2 0 5.8 2.2 11.2 6.3 15.2 4.1 4.1 9.5 6.3 15.2 6.3h198.9c5.8 0 11.2-2.2 15.2-6.3 4.1-4.1 6.3-9.5 6.3-15.2V609.1c0-5.7-2.3-11.2-6.3-15.3-4.1-4.1-9.5-6.3-15.2-6.3-5.8 0-11.2 2.2-15.3 6.3-4.1 4.1-6.3 9.5-6.3 15.3v152.5l-178.6-166c-4.2-3.9-9.7-6-15.5-5.8-5.8 0.2-11.1 2.6-15 6.9-8.1 8.7-7.6 22.4 1.1 30.5l176.5 164.1H659.4z m198.9-404.1c-7.9 0-15.3-3.1-20.9-8.7-5.6-5.6-8.7-13-8.7-20.9V223.4L663.6 376.9c-7.7 7.2-18.8 9.7-28.8 6.6-10.1-3.1-17.8-11.4-20.1-21.7-2.4-10.3 1-21.1 8.7-28.3L785 183.3H659.4c-7.9 0-15.3-3.1-20.9-8.7-5.6-5.6-8.7-13-8.7-20.9 0-7.9 3.1-15.3 8.7-20.9 5.6-5.6 13-8.7 20.9-8.7h198.9c16.3 0 29.6 13.3 29.6 29.6v203.7c0 7.9-3.1 15.3-8.7 20.9-5.6 5.7-13 8.8-20.9 8.8zM836.8 205v152.5c0 5.7 2.3 11.2 6.3 15.2 4.1 4.1 9.5 6.3 15.3 6.3 5.8 0 11.2-2.2 15.2-6.3 4.1-4.1 6.3-9.5 6.3-15.2V153.8c0-11.9-9.7-21.6-21.6-21.6H659.4c-5.7 0-11.2 2.3-15.2 6.3-4.1 4.1-6.3 9.5-6.3 15.2 0 5.8 2.2 11.2 6.3 15.2 4 4 9.6 6.3 15.2 6.3h145.8l-176.5 164c-5.6 5.2-8.1 13.1-6.3 20.6 1.7 7.5 7.3 13.6 14.7 15.8 7.4 2.3 15.4 0.4 21-4.8L836.8 205zM200.3 387.1c-7.9 0-15.3-3.1-20.9-8.7-5.6-5.6-8.7-13-8.7-20.9V153.8c0-7.9 3.1-15.3 8.7-20.9 5.6-5.6 13-8.7 20.9-8.7h198.9c7.9 0 15.3 3.1 20.9 8.7 5.6 5.6 8.7 13 8.7 20.9 0 7.9-3.1 15.3-8.7 20.9-5.6 5.6-13 8.7-20.9 8.7H273.7l161.6 150.2c11.9 11.1 12.6 29.9 1.5 41.8-11.1 12-29.9 12.6-41.8 1.5L229.9 223.4v134.1c0 7.9-3.1 15.3-8.7 20.9s-13 8.7-20.9 8.7z m0-254.8c-5.8 0-11.2 2.2-15.3 6.3-4 4-6.3 9.6-6.3 15.2v203.7c0 5.7 2.3 11.2 6.3 15.2 4.1 4.1 9.5 6.3 15.2 6.3 5.8 0 11.2-2.2 15.2-6.3 4-4 6.3-9.6 6.3-15.2V205l178.6 166c8.7 8.1 22.4 7.6 30.5-1.1 8.1-8.7 7.6-22.4-1.1-30.5l-176.5-164H399c5.7 0 11.2-2.3 15.2-6.3 4.1-4.1 6.3-9.5 6.3-15.3 0-5.8-2.2-11.2-6.3-15.2-4.1-4.1-9.5-6.3-15.2-6.3H200.3z" /></svg>