<?xml version="1.0" standalone="no"?><!DOCTYPE svg PUBLIC "-//W3C//DTD SVG 1.1//EN" "http://www.w3.org/Graphics/SVG/1.1/DTD/svg11.dtd"><svg class="icon" width="200px" height="200.00px" viewBox="0 0 1024 1024" version="1.1" xmlns="http://www.w3.org/2000/svg"><path d="M844.288 199.68c0-1.024-0.512-1.536-0.512-2.048 0-1.024-0.512-1.536-1.024-2.56s-1.024-1.536-1.536-2.56c-0.512-0.512-0.512-1.024-1.024-2.048-2.048-2.56-4.096-5.12-7.168-7.168-0.512-0.512-1.024-0.512-2.048-1.024s-1.536-1.024-2.56-1.536c-1.024-0.512-1.536-0.512-2.56-1.024-0.512 0-1.536-0.512-2.048-0.512-1.536-0.512-3.584-0.512-5.12-0.512h-251.904c-14.336 0-25.6 11.264-25.6 25.6s11.264 25.6 25.6 25.6h189.952l-208.384 208.384c-10.24 10.24-10.24 26.112 0 36.352 5.12 5.12 11.776 7.68 17.92 7.68s13.312-2.56 17.92-7.68l208.384-208.384v189.952c0 14.336 11.264 25.6 25.6 25.6s25.6-11.264 25.6-25.6V204.8c1.024-1.536 1.024-3.584 0.512-5.12zM475.136 548.864c-10.24-10.24-26.112-10.24-36.352 0l-208.384 208.384v-189.952c0-14.336-11.264-25.6-25.6-25.6s-25.6 11.264-25.6 25.6V819.2c0 1.536 0 3.584 0.512 5.12 0 1.024 0.512 1.536 0.512 2.048 0 1.024 0.512 1.536 1.024 2.56s1.024 1.536 1.536 2.56c0.512 0.512 0.512 1.024 1.024 2.048 2.048 2.56 4.096 5.12 7.168 7.168 0.512 0.512 1.024 0.512 2.048 1.024s1.536 1.024 2.56 1.536c1.024 0.512 1.536 0.512 2.56 1.024 0.512 0 1.536 0.512 2.048 0.512 1.536 0.512 3.584 0.512 5.12 0.512h251.904c14.336 0 25.6-11.264 25.6-25.6s-11.264-25.6-25.6-25.6h-189.952l208.384-208.384c9.216-10.24 9.216-26.624-0.512-36.864z"  /></svg>