<?xml version="1.0" standalone="no"?><!DOCTYPE svg PUBLIC "-//W3C//DTD SVG 1.1//EN" "http://www.w3.org/Graphics/SVG/1.1/DTD/svg11.dtd"><svg t="1579485661129" class="icon" viewBox="0 0 1024 1024" version="1.1" xmlns="http://www.w3.org/2000/svg" p-id="138531" xmlns:xlink="http://www.w3.org/1999/xlink" width="200" height="200"><defs><style type="text/css"></style></defs><path d="M871.986 66.261c-3.307-1.543-9.48-4.85-14.77-6.944-5.842-2.425-10.36-1.543-14.77 4.85-49.71 70.542-58.418 65.252-143.51 63.598-7.384-0.11-9.809-1.873-7.053-6.393 0 0 25.902-42.545 29.098-47.175s1.764-9.7-2.204-11.573c-4.078-1.874-16.313-6.283-20.17-5.952s-8.267 3.307-8.488 10.471c-0.33 11.353-8.156 36.043-14.55 45.522-5.51 8.046-18.957 5.511-49.93 3.637-34.5-2.094-79.47-12.675-80.352-12.896-7.605-1.543-12.675-3.086-7.275-15.21 5.622-12.676 19.069-43.759 23.037-53.568 2.976-7.275 3.086-14.22-5.29-15.872s-15.101 0.992-15.432 6.613a122.894 122.894 0 0 1-18.517 58.638c-12.455 19.4-26.343 24.69-37.586 30.862-4.63 2.425-11.353 6.724-12.786 5.291-1.433-1.433 11.133-22.265 15.431-30.752 4.52-8.928 12.125-22.706 13.888-27.666 3.087-9.038 1.764-15.1-8.597-18.186s-13.227-1.874-16.644 4.629c-5.18 12.124-2.424 35.491-12.344 54.78-14.55 28.548-15.432 26.784-22.045 28.438-16.203 3.968-30.642 12.124-32.626-7.055-1.102-15.21-1.543-44.86 10.03-60.622 4.52-6.172 11.794-13.006 14.88-17.084 3.307-4.52-0.33-7.495-2.424-8.487-3.307-1.543-11.023-1.874-19.069 5.731-6.393 6.062-13.116 18.407-16.202 32.185-2.976 13.227-3.748 39.129-1.103 66.905 0.441 4.409-0.992 3.637-6.393 3.527-4.408 0-16.533 1.984-21.052-13.888-3.637-12.896-6.834-39.68-0.882-50.923 6.724-12.785 10.692-16.423 5.952-20.611-2.094-2.205-5.18-3.086-8.156-2.425-4.41 0.33-8.377 4.299-11.904 9.148-4.52 7.385-6.834 15.762-6.724 24.36 0 14.549 4.63 47.836 6.834 61.063 1.653 9.81-4.409 19.068-11.573 28.106-6.283 7.716-8.928 10.361-12.896 14.55-2.425 2.535-4.63 1.433-6.503-0.331-12.125-11.904-76.495-58.859-92.697-65.362-17.967-7.274-40.452 4.41-34.28 22.706 7.055 20.722 25.131 58.197 35.713 78.699 19.84 38.247 21.272 60.181-12.456 111.655s-79.36 109.56-67.566 178.45c22.596 132.928 132.818 110.112 132.046 269.713-0.11 30.973 3.197 51.584-0.771 87.186-6.944 63.819-29.209 95.783-39.35 116.174 0 0-1.432 2.976 2.425 3.197 5.622 0.33 16.093-0.772 15.542 2.976-0.551 3.417-0.441 4.85 2.976 4.85 8.156 0.22 45.08-0.11 50.371 0 4.85 0.11 7.385-5.732 8.047-8.157 4.298-17.966 13.777-80.462 13.777-133.259 0 0 0.551-44.75 8.598-81.564 9.038-41.884 9.038-61.173 39.349-67.787 27.225-5.952 107.026-4.85 192.889 15.983 74.951 18.186 64.039 49.159 81.564 64.039 42.326 35.712 53.017 56.433 54.01 90.823 0.881 30.752-11.574 79.47-23.809 97.326-6.834 9.81-1.653 14.329 2.425 14.55 4.078 0.22 35.602 0.33 38.578 0.33 2.976 0 5.731-0.551 7.054-7.826 10.471-55.552 9.92-70.542 9.92-84.76 0.661-26.013-4.409-51.805-14.77-75.723-0.22-0.551 0.551-1.323 0.882-0.772 16.754 26.123 22.375 43.317 25.572 65.693 6.833 48.056 1.212 77.045-5.732 100.743-3.086 10.581 1.984 10.581 7.495 10.581h33.398c7.605 0.11 8.928-1.323 9.258-7.826 0.662-9.479-0.44-104.49-16.864-145.383-21.824-54.34-42.325-55.331-44.86-78.699-4.189-36.924 10.581-81.454 15.541-90.712 0.772-1.433 1.984-2.425 3.417-2.976 7.275-2.646 31.524-11.574 9.7-39.13-35.712-45.19-83.88-82.335-214.272-98.758-158.72-19.95-202.81-46.294-228.491-121.906-20.612-60.622 19.62-103.499 38.137-124.33h0.22c9.81 4.518 30.201 7.715 19.73-14.991 0-0.11 0-0.22 0.11-0.22 5.401 0.44 24.47 3.086 53.789 5.18 15.1 1.102 16.974-13.778 4.629-19.4-27.004-12.124-46.183-11.242-56.875-29.649-4.298-7.385-4.188-17.966 0.882-27.115 4.299-9.258 15.652-27.555 27.115-37.696 21.162-18.627 31.744-22.265 63.378-13.337s59.189 20.281 114.3 35.933c18.517 5.29 103.72 31.744 151.335-43.317h0.22c38.799-2.976 65.142-0.22 130.504-75.833 4.409-5.18 2.425-7.936-1.433-9.59zM585.298 144.74c-3.197 9.7-8.818 28.437-24.91 24.69-19.84-4.85-80.683-25.131-88.84-30.863-1.212-0.882 18.738-10.36 43.759-13.006 22.265-1.653 44.64-1.213 66.905 1.212 8.266 1.323 6.062 9.039 3.086 17.967z m123.89 7.936c-5.622 12.124-14.22 26.673-44.53 33.066-24.91 5.29-58.859-2.866-65.362-3.306a7.65 7.65 0 0 1-7.275-8.047c0.11-1.433 0.551-2.865 1.433-3.968 3.197-4.85 14.55-24.69 16.974-28.217s4.41-7.715 10.251-7.715c6.393 0 21.163 2.755 40.121 5.731 12.896 1.984 31.083 5.512 47.285 8.818 2.315 0.441 1.654 2.535 1.103 3.638z" fill="#F2A827" p-id="138532"></path></svg>