<?xml version="1.0" standalone="no"?><!DOCTYPE svg PUBLIC "-//W3C//DTD SVG 1.1//EN" "http://www.w3.org/Graphics/SVG/1.1/DTD/svg11.dtd"><svg class="icon" width="200px" height="200.00px" viewBox="0 0 1024 1024" version="1.1" xmlns="http://www.w3.org/2000/svg"><path d="M512 176c185.3 0 336 150.7 336 336S697.3 848 512 848c-49.9 0-98-10.7-142.9-31.9l-22.3-10.5-24.2 4.8-137.1 27.4L212 696.7l4.4-23.3-9.9-21.6C186.3 607.7 176 560.7 176 512c0-185.3 150.7-336 336-336m0-74.7c-226.8 0-410.7 183.9-410.7 410.7 0 61 13.4 118.9 37.3 171L102 878.4c-4.4 23.5 13.9 44.2 36.6 44.2 2.4 0 4.9-0.2 7.5-0.7l191.3-38.3c53 25 112.2 39 174.7 39 226.8 0 410.7-183.9 410.7-410.7-0.1-226.7-184-410.6-410.8-410.6zM512 512m-37.3 0a37.3 37.3 0 1 0 74.6 0 37.3 37.3 0 1 0-74.6 0ZM362.7 512m-37.3 0a37.3 37.3 0 1 0 74.6 0 37.3 37.3 0 1 0-74.6 0ZM661.3 512m-37.3 0a37.3 37.3 0 1 0 74.6 0 37.3 37.3 0 1 0-74.6 0Z" /></svg>