<?xml version="1.0" standalone="no"?><!DOCTYPE svg PUBLIC "-//W3C//DTD SVG 1.1//EN" "http://www.w3.org/Graphics/SVG/1.1/DTD/svg11.dtd"><svg class="icon" width="200px" height="168.42px" viewBox="0 0 1216 1024" version="1.1" xmlns="http://www.w3.org/2000/svg"><path d="M1216 665.6c0 89.6-51.2 179.2-134.4 236.8l32 89.6c6.4 12.8 0 19.2-6.4 25.6-6.4 6.4-12.8 6.4-19.2 6.4h-12.8l-128-64c-38.4 12.8-76.8 12.8-115.2 12.8-211.2 0-377.6-140.8-377.6-307.2S627.2 358.4 832 358.4s384 140.8 384 307.2z m-377.6-358.4c-236.8 0-428.8 160-428.8 358.4 0 19.2 0 44.8 6.4 70.4 0 6.4 0 19.2-6.4 25.6-6.4 6.4-12.8 6.4-19.2 6.4-38.4-6.4-76.8-12.8-115.2-25.6l-134.4 76.8c-6.4 0-6.4 6.4-12.8 6.4s-12.8 0-19.2-6.4c-6.4-6.4-12.8-19.2-6.4-32l51.2-108.8C51.2 608 0 499.2 0 384c0-211.2 198.4-384 441.6-384 192 0 364.8 108.8 422.4 268.8 0 6.4 6.4 6.4 6.4 12.8 0 12.8-12.8 25.6-25.6 25.6h-6.4z"  /></svg>