<?xml version="1.0" standalone="no"?><!DOCTYPE svg PUBLIC "-//W3C//DTD SVG 1.1//EN" "http://www.w3.org/Graphics/SVG/1.1/DTD/svg11.dtd"><svg version="1.0" xmlns="http://www.w3.org/2000/svg" width="578.000000pt" height="475.000000pt" viewBox="0 0 578.000000 475.000000" preserveAspectRatio="xMidYMid meet">
          <g transform="translate(0.000000,475.000000) scale(0.100000,-0.100000)" fill="#3e3e3e" stroke="none">
            <path d="M0 3000 l0 -1750 500 0 500 0 0 1750 0 1750 -500 0 -500 0 0 -1750z" fill="#3396FF"></path>
            <path d="M4780 3000 l0 -1750 500 0 500 0 0 1750 0 1750 -500 0 -500 0 0 -1750z" fill="#3396FF"></path>
            <path d="M1190 3250 l0 -1000 500 0 500 0 0 1000 0 1000 -500 0 -500 0 0 -1000z" fill="#3396FF"></path>
            <path d="M3580 3250 l0 -1000 500 0 500 0 0 1000 0 1000 -500 0 -500 0 0 -1000z" fill="#3396FF"></path>
            <path d="M2390 2750 l0 -1000 500 0 500 0 0 1000 0 1000 -500 0 -500 0 0 -1000z" fill="#3396FF"></path>
            <path d="M90 430 l0 -420 70 0 70 0 2 282 3 283 114 -283 113 -282 68 0 67 0 56 143 c31 78 81 205 111 282 l55 140 1 -282 0 -283 75 0 75 0 0 420 0 421 -81 -3 -81 -3 -136 -312 c-75 -171 -138 -310 -140 -308 -2 2 -66 142 -142 312 l-138 308 -81 3 -81 3 0 -421z"></path>
            <path d="M1590 552 c0 -350 5 -376 80 -453 81 -83 238 -117 389 -85 132 28 197 83 232 197 17 54 19 94 19 350 l0 289 -80 0 -80 0 0 -288 c0 -282 -1 -290 -23 -332 -33 -63 -81 -85 -182 -85 -92 0 -130 16 -167 67 -23 32 -23 39 -28 333 l-5 300 -77 3 -78 3 0 -299z"></path>
            <path d="M2940 552 c0 -350 5 -376 80 -453 81 -83 238 -117 389 -85 132 28 197 83 232 197 17 54 19 94 19 350 l0 289 -80 0 -80 0 0 -288 c0 -282 -1 -290 -23 -332 -33 -63 -81 -85 -182 -85 -92 0 -130 16 -167 67 -23 32 -23 39 -28 333 l-5 300 -77 3 -78 3 0 -299z"></path>
            <path d="M4280 430 l0 -420 80 0 80 0 0 350 0 350 115 0 c172 0 207 -21 192 -118 -8 -49 -67 -102 -139 -125 -30 -9 -62 -17 -71 -17 -13 0 -17 -9 -17 -36 0 -30 22 -67 128 -220 l127 -183 103 -1 c80 0 101 3 96 12 -5 7 -45 63 -89 123 -45 61 -100 136 -123 167 l-42 57 38 23 c133 82 184 188 148 310 -11 39 -26 65 -51 87 -60 52 -112 61 -357 61 l-218 0 0 -420z"></path>
            <path d="M5540 430 l0 -420 80 0 80 0 -2 418 -3 417 -77 3 -78 3 0 -421z"></path>
          </g>
        </svg>