<?xml version="1.0" standalone="no"?><!DOCTYPE svg PUBLIC "-//W3C//DTD SVG 1.1//EN" "http://www.w3.org/Graphics/SVG/1.1/DTD/svg11.dtd"><svg class="icon" width="200px" height="200.00px" viewBox="0 0 1024 1024" version="1.1" xmlns="http://www.w3.org/2000/svg"><path d="M668.775406 895.859462a159.974904 159.974904 0 0 1-313.550812 0H192.050192a127.979923 127.979923 0 1 1 0-255.959846V383.939769a319.949808 319.949808 0 1 1 639.899616 0v255.959847a127.979923 127.979923 0 1 1 0 255.959846h-163.174402z m-66.22961 0h-181.091592a95.984942 95.984942 0 0 0 181.091592 0zM831.949808 703.889577h-63.989962V383.939769a255.959846 255.959846 0 1 0-511.919692 0v319.949808H192.050192a63.989962 63.989962 0 0 0 0 127.979923h639.899616a63.989962 63.989962 0 0 0 0-127.979923z" /></svg>