<?xml version="1.0" standalone="no"?><!DOCTYPE svg PUBLIC "-//W3C//DTD SVG 1.1//EN" "http://www.w3.org/Graphics/SVG/1.1/DTD/svg11.dtd"><svg class="icon" width="200px" height="200.00px" viewBox="0 0 1024 1024" version="1.1" xmlns="http://www.w3.org/2000/svg"><path d="M158.1 450.43c77.12 186.19 225.27 342.95 426.17 426.17l301.35-727.51L158.1 450.43z" /><path d="M235.2 418.49c68.95 166.45 201.4 306.61 381 381l269.41-650.41L235.2 418.49z" fill="#F6D499" /><path d="M710.02 363.96c-16.91 40.82 2.48 87.62 43.3 104.53l61.23-147.82c-40.82-16.92-87.62 2.47-104.53 43.29z" fill="#DF7867" /><path d="M508.71 599.1m-80 0a80 80 0 1 0 160 0 80 80 0 1 0-160 0Z" fill="#DF7867" /><path d="M436.52 396.78c40.82 16.91 87.62-2.48 104.53-43.3 8.51-20.55 7.79-42.59-0.19-61.59l-147.75 61.2c7.78 19.08 22.86 35.18 43.41 43.69z" fill="#DF7867" /><path d="M749.22 231.09c15.63 6.47 33.55-0.95 40.02-16.58 3.5-8.46 2.67-17.44-1.07-25.06l-55.91 23.16c2.74 8.03 8.5 14.97 16.96 18.48zM623.91 700.85c-6.47 15.63 0.95 33.55 16.58 40.02l23.44-56.6c-15.63-6.47-33.55 0.95-40.02 16.58z" fill="#E6B05D" /><path d="M620.41 454.87m-32 0a32 32 0 1 0 64 0 32 32 0 1 0-64 0Z" fill="#E6B05D" /><path d="M364.48 487.41m-32 0a32 32 0 1 0 64 0 32 32 0 1 0-64 0Z" fill="#E6B05D" /></svg>