<?xml version="1.0" standalone="no"?><!DOCTYPE svg PUBLIC "-//W3C//DTD SVG 1.1//EN" "http://www.w3.org/Graphics/SVG/1.1/DTD/svg11.dtd"><svg class="icon" width="200px" height="200.00px" viewBox="0 0 1024 1024" version="1.1" xmlns="http://www.w3.org/2000/svg"><path d="M810.666667 85.333333 631.466667 85.333333c-17.066667-49.066667-64-85.333333-119.466667-85.333333s-102.4 36.266667-119.466667 85.333333L213.333333 85.333333c-46.933333 0-85.333333 38.4-85.333333 85.333333l0 682.666667c0 46.933333 38.4 85.333333 85.333333 85.333333l597.333333 0c46.933333 0 85.333333-38.4 85.333333-85.333333L896 170.666667C896 123.733333 857.6 85.333333 810.666667 85.333333zM512 85.333333c23.466667 0 42.666667 19.2 42.666667 42.666667s-19.2 42.666667-42.666667 42.666667-42.666667-19.2-42.666667-42.666667S488.533333 85.333333 512 85.333333zM810.666667 853.333333l-597.333333 0L213.333333 170.666667l85.333333 0 0 128L725.333333 298.666667l0-128 85.333333 0L810.666667 853.333333z" /></svg>