<?xml version="1.0" standalone="no"?><!DOCTYPE svg PUBLIC "-//W3C//DTD SVG 1.1//EN" "http://www.w3.org/Graphics/SVG/1.1/DTD/svg11.dtd"><svg class="icon" width="200px" height="200.00px" viewBox="0 0 1024 1024" version="1.1" xmlns="http://www.w3.org/2000/svg"><path d="M758.449 821.64c-15.355 0-30.711-5.857-42.427-17.573L223.693 311.738c-23.432-23.432-23.432-61.422 0-84.854 23.431-23.43 61.422-23.43 84.853 0l492.33 492.329c23.431 23.432 23.431 61.422 0 84.854-11.716 11.716-27.071 17.573-42.427 17.573z"  /><path d="M266.12 821.64c-15.355 0-30.711-5.857-42.426-17.573-23.432-23.432-23.432-61.422 0-84.854l492.329-492.329c23.432-23.43 61.422-23.43 84.854 0 23.431 23.432 23.431 61.422 0 84.854l-492.33 492.329c-11.716 11.716-27.072 17.573-42.427 17.573z"  /></svg>