<?xml version="1.0" standalone="no"?><!DOCTYPE svg PUBLIC "-//W3C//DTD SVG 1.1//EN" "http://www.w3.org/Graphics/SVG/1.1/DTD/svg11.dtd"><svg class="icon" width="200px" height="200.00px" viewBox="0 0 1024 1024" version="1.1" xmlns="http://www.w3.org/2000/svg"><path d="M512.0027959 928.00477866a416 288 89.999 1 0-0.01452114-832.00000007 416 288 89.999 1 0 0.01452114 832.00000007Z" fill="#E6B05D" /><path d="M512 959.99457229c-43.99618393 0-79.99499016-35.99880623-80.00206122-80.00206122l0-735.99916427c0-43.99618393 35.99880623-79.99499016 80.00206122-80.00206122 43.99618393 0 79.99499016 35.99880623 80.00206122 80.00206122L591.99499016 879.99958213c0.00707107 44.00325499-35.99173516 80.00206122-79.99499016 79.99499016z" fill="#DF7867" /><path d="M464.00159169 943.9998169c-8.83883476 0-15.99475539-7.15592063-16.00182646-16.00182646 0-33.20573444 31.62181525-48.45095665 57.04230404-60.70511717 23.53251368-11.35613491 38.95451258-19.70706599 38.94744151-31.89051583s-15.4219989-20.52730986-38.93329937-31.89051583c-25.42048878-12.25416052-57.06351724-27.52059592-57.05644618-60.7192593 0-33.16330804 31.64302846-48.38731704 57.06351725-60.64147755 23.51837154-11.3137085 38.93329937-19.65756852 38.94037044-31.79859195s-15.4219989-20.48488345-38.94037044-31.79859195c-25.42048878-12.25416052-57.05644617-27.48524058-57.06351725-60.64147756 0-33.16330804 31.64302846-48.38731704 57.06351725-60.62733542 23.51837154-11.3137085 38.93329937-19.64342638 38.94037044-31.78444981 0-12.10566809-15.4219989-20.42831491-38.93329938-31.73495234-25.42755985-12.21880518-57.06351724-27.43574311-57.05644617-60.57783794 0-33.16330804 31.64302846-48.38731704 57.06351724-60.62733542 23.51837154-11.3137085 38.93329937-19.64342638 38.94037044-31.78444982s-15.4219989-20.48488345-38.95451257-31.79859195c-25.40634665-12.24001838-57.04230404-27.47109845-57.04937511-60.62733542s31.64302846-48.3731749 57.06351724-60.61319328c23.51837154-11.3137085 38.93329937-19.64342638 38.93329937-31.76323661 0-8.83883476 7.15592063-15.99475539 16.00182646-16.00182646s15.99475539 7.15592063 16.00182646 16.00182646c0 33.16330804-31.64302846 48.3731749-57.06351724 60.61319328-23.51837154 11.3137085-38.93329937 19.64342638-38.93329937 31.76323661 0 12.13395237 15.4219989 20.47074132 38.94037044 31.78444982 25.42048878 12.25416052 57.06351724 27.46402738 57.06351724 60.64147755 0 33.16330804-31.64302846 48.38731704-57.06351724 60.62733542-23.51837154 11.3137085-38.93329937 19.64342638-38.94037044 31.78444982 0 12.10566809 15.4219989 20.42831491 38.93329937 31.73495233 25.42755985 12.21880518 57.06351724 27.43574311 57.05644617 60.57783795 0 33.16330804-31.64302846 48.38731704-57.06351724 60.62733542-23.51837154 11.3137085-38.93329937 19.64342638-38.94037044 31.78444981s15.4219989 20.48488345 38.94037044 31.79859195c25.42048878 12.25416052 57.05644617 27.48524058 57.06351724 60.64147756 0 33.17745017-31.64302846 48.38731704-57.06351724 60.64147755-23.51837154 11.3137085-38.93329937 19.65756852-38.94037044 31.79859195 0 12.20466304 15.4219989 20.54145199 38.95451258 31.91172904 25.42048878 12.25416052 57.04230404 27.51352486 57.04230404 60.70511716 0 33.20573444-31.62181525 48.45095665-57.04230404 60.70511717-23.53251368 11.35613491-38.95451258 19.70706599-38.94744151 31.89051583-0.01414214 8.83883476-7.17006276 15.99475539-16.00889753 15.99475539z" fill="#F6D499" /></svg>