<?xml version="1.0" standalone="no"?><!DOCTYPE svg PUBLIC "-//W3C//DTD SVG 1.1//EN" "http://www.w3.org/Graphics/SVG/1.1/DTD/svg11.dtd"><svg class="icon" width="200px" height="200.00px" viewBox="0 0 1024 1024" version="1.1" xmlns="http://www.w3.org/2000/svg"><path d="M464.693 0h95.544c24.999 6.657 50.714 11.314 74.913 20.257C785.808 75.771 876.18 183.4 897.808 342.2c20.144 148.371-36.686 268.743-153.114 360.8-16.199 12.828-22.399 24.743-22.114 44.829 1.115 76.027 1.543 152.085-0.428 228.056-0.429 16.2-12.058 32.115-18.543 48.115h-20.515c-49.886-33.457-100.172-66.372-149.457-100.743-15.485-10.8-26.9-10.8-42.372 0-49.286 34.371-99.571 67.286-149.485 100.743h-20.457c-6.5-16-18.115-31.857-18.572-48.058-1.972-76.086-1.171-152.229-0.628-228.4 0.114-17.885-3.286-29.885-20-42.085-232.914-170.2-206.971-525.171 48.843-658.6C372.422 25.257 419.951 15.343 464.693 0zM213.008 388.086c0.771 170.114 131.857 302.199 299.543 301.771 166.057-0.456 300.686-135.114 299.172-299.399-1.544-169.4-134.115-301.286-301.687-300.114-165.314 1.142-297.757 133.913-297.028 297.742z m150.943 549.285c37.114-25.058 72.257-45.514 103.528-70.8 32.443-26.229 59.416-23.914 91.043 0.914 31.543 24.714 66.257 45.343 101.943 69.457V751.028c-99.772 36.972-197.458 36.286-296.515 0.086l0.001 186.257zM354.494 558.972c5-29.943 12.228-63.4 15.371-97.286 1.157-12.286-4.071-28.571-12.286-37.743-21.143-23.657-46.614-43.372-68.2-66.714-8.2-8.915-16.958-25.886-13.6-34.6 4.085-10.657 19.628-19.8 32.057-23.657 19.343-5.942 40.371-9.942 60.443-9.229 48.585 1.8 74.614-23.028 89.128-66.171 4.671-13.828 11.257-27.771 20.014-39.343 9.585-12.657 22.415-31.029 34.357-31.429 11.486-0.371 26.457 17.172 34.914 30.086 13.544 20.771 24.972 43.543 33.687 66.8 9.914 26.429 27.972 35.2 54.257 37.229 29.429 2.2 58.742 6.886 87.715 12.657 31.514 6.372 39.285 31.115 16.885 54.486-22.771 23.771-49.057 44.314-70.828 68.943-8.743 9.828-14.029 27.028-13.029 40.286 2.4 31.628 10.857 62.714 14.344 94.286 4.143 37.543-15.457 50.771-49.687 34.771-36.885-17.314-73.37-48.886-110.128-49.029-35.443-0.199-70.671 32.486-106.557 49.544-31.058 14.741-49.801 2.656-48.857-33.887z m157.542-310.829C492.78 323.4 445.008 353.371 369.78 351.314c67.343 39.972 79 94.229 50.285 162.971 35.144-15.514 63.015-37.542 90.715-37.4 29.086 0.086 58.028 21.486 88.571 34.257-3.543-30.4-16.485-63.457-7.914-89.314 9-26.886 38.743-46.886 65.771-77.029-80.429 11.287-123.257-24.256-145.172-96.656z" /></svg>