<?xml version="1.0" standalone="no"?><!DOCTYPE svg PUBLIC "-//W3C//DTD SVG 1.1//EN" "http://www.w3.org/Graphics/SVG/1.1/DTD/svg11.dtd"><svg class="icon" width="200px" height="200.00px" viewBox="0 0 1024 1024" version="1.1" xmlns="http://www.w3.org/2000/svg"><path d="M704 128v128a64 64 0 0 1-64 64H384a64 64 0 0 1-64-64V128H128v768h768V314.496L709.504 128H704zM128 64h581.504a64 64 0 0 1 45.248 18.752l186.496 186.496a64 64 0 0 1 18.752 45.248V896a64 64 0 0 1-64 64H128a64 64 0 0 1-64-64V128a64 64 0 0 1 64-64z m256 64v128h256V128H384z m128 672a192 192 0 1 1 0-384 192 192 0 0 1 0 384z m0-64a128 128 0 1 0 0-256 128 128 0 0 0 0 256z" /></svg>