<?xml version="1.0" standalone="no"?><!DOCTYPE svg PUBLIC "-//W3C//DTD SVG 1.1//EN" "http://www.w3.org/Graphics/SVG/1.1/DTD/svg11.dtd"><svg class="icon" width="200px" height="200.00px" viewBox="0 0 1024 1024" version="1.1" xmlns="http://www.w3.org/2000/svg"><path d="M523.047 138.304l63.456 8.339-75.053 571.104-63.456-8.34zM575.99 268.949l63.98-1.536 12.285 511.696-63.98 1.536zM759.342 202.321l63.789 5.165-23.242 287.05-63.789-5.165z" fill="#FAD757" /><path d="M388.483 206.14l63.801-4.998 32.586 415.936-63.802 4.999zM652.58 237.71l63.801-5 20.566 262.505-63.802 4.998zM300.42 235.58h64v389.23h-64z" fill="#FAD757" /><path d="M191.523 177.478l63.584-7.264 65.376 572.256-63.584 7.264z" fill="#FAD757" /><path d="M758.6 332C722.62 443.78 625.95 492 512 492s-210.62-48.22-246.6-160H192l61.09 544h517.82L832 332h-73.4z" fill="#DF7867" /></svg>