<?xml version="1.0" standalone="no"?><!DOCTYPE svg PUBLIC "-//W3C//DTD SVG 1.1//EN" "http://www.w3.org/Graphics/SVG/1.1/DTD/svg11.dtd"><svg class="icon" width="200px" height="200.00px" viewBox="0 0 1024 1024" version="1.1" xmlns="http://www.w3.org/2000/svg"><path d="M426.1476135253907 392.0268249511719l-0.13677978515625-222.02572631835938c-0.009063720703124998-15.664581298828123-12.64306640625-28.369445800781254-28.200531005859375-28.361206054687504-15.557464599609377 0.010711669921875-28.17581176757812 12.7320556640625-28.166748046875 28.395812988281254l0.09887695312499999 160.21939086914062-179.30181884765628-180.3680419921875c-10.546875-10.607025146484375-27.62704467773438-10.596313476562498-38.2159423828125 0.023895263671875-10.53533935546875 10.6754150390625-10.524627685546875 27.872589111328125 0.0230712890625 38.4796142578125L331.6072387695312 368.70257568359375l-159.1251525878906 0.09887695312499999c-15.556640625 0.010711669921875-28.174987792968757 12.7320556640625-28.165924072265625 28.395812988281254 0.009063720703124998 15.663757324218754 12.643890380859375 28.369445800781254 28.200531005859375 28.360382080078125l220.50796508789065-0.137603759765625c20.574645996093746-0.014007568359375 33.137786865234375-10.691894531250002 33.123779296875-33.39404296875zM630.2980346679688 425.66229248046875l220.5087890625-0.356781005859375c15.556640625-0.025543212890625 28.163452148437504-12.759246826171873 28.13873291015625-28.423828125-0.025543212890625-15.664581298828123-12.672729492187502-28.357086181640625-28.2293701171875-28.332366943359375l-159.12432861328125 0.25708007812499994 178.95904541015625-180.71411132812497c10.525451660156248-10.6292724609375 10.4974365234375-27.8272705078125-0.06097412109374999-38.4796142578125-10.612792968750002-10.596313476562498-27.692138671874996-10.569122314453125-38.2159423828125 0.061798095703125l-178.90301513671878 180.77178955078125-0.25543212890625-160.22021484375c-0.025543212890625-15.663757324218754-12.672729492187502-28.357086181640625-28.2293701171875-28.33154296875-15.556640625 0.024719238281249997-28.163452148437504 12.759246826171873-28.13873291015625 28.423828125l0.35430908203125 222.02572631835938c0.03707885742187499 22.70050048828125 12.5672607421875 33.350372314453125 33.19711303710938 33.31823730468749zM393.1540222167969 595.9209899902345l-220.50796508789065-0.3427734375c-15.556640625-0.024719238281249997-28.203002929687504 12.66943359375-28.22689819335938 28.33401489257813-0.023895263671875 15.664581298828123 12.582092285156248 28.397460937500004 28.140380859375 28.42135620117187l159.12432861328125 0.2471923828125-179.52264404296875 180.14556884765625c-10.557586669921875 10.596313476562498-10.583953857421875 27.793487548828125-0.059326171875 38.4796142578125 10.579833984375 10.6292724609375 27.66000366210938 10.656463623046875 38.2159423828125 0.058502197265625l179.46743774414062-180.20242309570312-0.24554443359375 160.22021484375c-0.0230712890625 15.664581298828123 12.582916259765625 28.397460937500004 28.140380859375 28.42135620117187 15.557464599609377 0.024719238281249997 28.203002929687504-12.670257568359375 28.22689819335938-28.334838867187496l0.340301513671875-222.02572631835938c0.03460693359375-22.70132446289062-12.518646240234373-33.38992309570313-33.093292236328125-33.42205810546874zM596.7391967773438 629.3751831054688l0.389739990234375 222.02572631835938c0.02801513671875 15.664581298828123 12.676025390624998 28.35543823242187 28.232666015625004 28.328247070312504 15.557464599609377-0.02801513671875 28.161804199218746-12.76336669921875 28.1337890625-28.42794799804687l-0.28015136718750006-160.22021484375 179.50698852539062 180.16204833984375c10.559234619140625 10.596313476562498 27.63858032226562 10.565826416015625 38.2159423828125-0.06756591796875 10.522979736328125-10.6885986328125 10.492492675781248-27.885772705078125-0.066741943359375-38.4796142578125L691.3075866699219 652.5898437500001l159.1251525878906-0.28344726562499994c15.556640625-0.02801513671875 28.160980224609375-12.76336669921875 28.13296508789062-28.4271240234375-0.02801513671875-15.6654052734375-12.676025390624998-28.35543823242187-28.232666015625004-28.328247070312504l-220.50796508789065 0.3922119140625c-20.632324218749996 0.03790283203125-33.12625122070313 10.730621337890625-33.08587646484376 33.43194580078125z"  /></svg>