<?xml version="1.0" standalone="no"?><!DOCTYPE svg PUBLIC "-//W3C//DTD SVG 1.1//EN" "http://www.w3.org/Graphics/SVG/1.1/DTD/svg11.dtd"><svg class="icon" width="200px" height="200.00px" viewBox="0 0 1024 1024" version="1.1" xmlns="http://www.w3.org/2000/svg"><path d="M445.586702 411.721695c0-0.143344 0.040955-0.26621 0.040956-0.409554V186.517094c0-16.909466-13.693442-30.625434-30.599837-30.625434-16.885917 0-30.599837 13.715968-30.599837 30.625434v148.477707L180.584703 132.780521c-13.140544-13.142592-34.42712-13.142592-47.567665 0-13.099589 13.122114-13.099589 34.411762 0 47.533876l204.150447 202.501992H190.388404c-16.906394 0-30.599837 13.69549-30.599836 30.604956s13.693442 30.604956 30.599836 30.604956h224.782761c16.885917 0 30.599837-13.69549 30.599837-30.604956 0-0.573376-0.143344-1.126274-0.1843-1.69965M687.37415 641.19897H834.152207c16.885917 0 30.599837-13.69549 30.599837-30.604957s-13.71392-30.603932-30.599837-30.603932H609.370471c-16.906394 0-30.599837 13.69549-30.599837 30.603932 0 0.593853 0.143344 1.126274 0.184299 1.69965 0 0.143344-0.040955 0.26621-0.040955 0.409554v224.795047c0 16.909466 13.693442 30.603932 30.579359 30.603933 16.906394 0 30.620315-13.69549 30.620314-30.603933V689.019534l203.843282 202.215304c13.140544 13.122114 34.428144 13.122114 47.54821 0s13.120067-34.411762 0-47.533877L687.37415 641.19897z" /></svg>