<?xml version="1.0" standalone="no"?><!DOCTYPE svg PUBLIC "-//W3C//DTD SVG 1.1//EN" "http://www.w3.org/Graphics/SVG/1.1/DTD/svg11.dtd"><svg class="icon" width="200px" height="200.00px" viewBox="0 0 1024 1024" version="1.1" xmlns="http://www.w3.org/2000/svg"><path d="M508.38715575 986.34616848L303.5864045 371.94391473l409.6015025 0z" fill="#F2D6C0" /><path d="M328.70283738 446.62947577l35.76640379 35.7664038-18.04913628 18.04913629 12.06795573 36.2038672 30.11709202-30.11709203 35.75886132 35.75886133-35.76640379 35.7664038-24.46023778-24.46023777 24.29430339 72.88291015 0.16593439-0.16593439 35.75886133 35.75886133L406.3073352 680.12179177l12.06795573 36.2038672 30.10954956-30.10954955 35.7664038 35.7664038-35.75886134 35.75886133-24.46778024-24.46778025 24.30184586 72.90553756 0.16593438-0.16593439 35.75886134 35.75886134-18.04913629 18.04913628 12.06795573 36.2038672 30.10954955-30.10954955 30.10954956 30.10954955 12.06795572-36.2038672-18.04913629-18.04913628 35.75886134-35.75886134 0.16593438 0.16593439 24.30184586-72.90553756-24.46778024 24.46778025-35.75886134-35.75886133 35.7664038-35.7664038 30.10954956 30.10954955 12.06795573-36.2038672-18.04159382-18.04159382 35.75886133-35.75886133 0.16593439 0.16593439 24.29430338-72.88291015-24.46023777 24.46023777-35.76640381-35.76640379 35.75886133-35.75886134 30.11709203 30.11709204 12.06795573-36.2038672-18.04913629-18.0491363 35.7664038-35.7664038 0.16593439 0.16593439 24.30184585-72.90553757-24.46778024 24.46778025-26.4137381-26.4137381-66.94698443 0-26.42128059 26.42128057-26.42128057-26.42128057-66.93189949 0-26.42128058 26.42128057-26.42128058-26.42128057-66.94698442 0-26.41373811 26.4137381-24.46778025-24.46778025 24.30184586 72.90553757 0.15839191-0.15839192z m84.03068425 155.56349186l35.7664038-35.7664038 35.75886133 35.75886132-35.76640381 35.76640381-35.75886132-35.75886133z m59.89477279-59.89477279l35.75886133-35.75886134 35.75886133 35.75886134-35.75886133 35.75886132-35.75886133-35.75886132zM544.14601708 781.87728601l-35.75886133 35.75886133-35.75886133-35.75886133 35.75886133-35.75886133 35.75886133 35.75886133z m-35.75886133-84.03068426l-35.7664038-35.7664038 35.7664038-35.7664038 35.7664038 35.7664038-35.7664038 35.7664038z m95.65363413-95.65363412l-35.75886134 35.75886133-35.76640379-35.76640381 35.75886132-35.75886132 35.76640381 35.7664038z m24.14345393-215.45072218l35.75886133 35.75886132-35.7664038 35.76640381-35.75886133-35.75886133 35.7664038-35.7664038z m-24.15099641 95.65363412l-35.75886133 35.75886133-35.75886132-35.75886133 35.75886132-35.75886133 35.75886133 35.75886133z m-95.64609165-95.64609166l35.75886133 35.75886134-35.75886133 35.75886133-35.75886133-35.75886133 35.75886133-35.75886134z m-24.13591146 95.65363413l-35.75886134 35.75886133-35.75886132-35.75886133 35.75886132-35.75886133 35.75886134 35.75886133z m-95.6611766-95.66117659l35.76640381 35.7664038-35.75886133 35.75886133-35.7664038-35.76640381 35.75886132-35.75886132zM508.55309014 985.8483653l24.29430339-72.89799509-24.46023778 24.46023777-24.46023778-24.46023777 24.2943034 72.89799509 0.16593438-0.16593439z" fill="#F0B471" /><path d="M576.65407283 133.01347618s-9.8957237 20.81722364-74.41403203 43.00717724c-79.18841702 26.61738486-123.56078175 57.68482841-147.79474535 86.70071947 3.41673997-44.37236474 22.18241113-99.32681814 86.70071946-131.75944919 66.22290708-33.11145354 67.24114084-96.59644317 67.24114084-100.35259439 0 0 68.26691709 34.14477225 68.26691708 102.40414687z" fill="#F2D6C0" /><path d="M576.65407283 133.01347618s-9.8957237 20.81722364-74.41403203 43.00717724c-79.18841702 26.61738486-123.56078175 57.68482841-147.79474535 86.70071947-23.89455235 28.67647981-28.32952608 55.63327593-26.62492734 75.77167704 25.94610482-13.65187492 77.82322953-27.65070357 180.56678764-34.81605229 114.68329182-7.8517137 136.52629169-68.26691709 136.5262917-68.26691707 0.00754247-68.26691709-68.25937461-102.39660438-68.25937462-102.39660439z" fill="#F9E4C7" /><path d="M644.92098992 235.41762304s-21.84299987 60.41520338-136.52629169 68.26691708c-102.74355811 7.16534871-154.62068282 21.16417737-180.56678765 34.81605229-33.11145354 17.06107242-24.23396361 33.4508648-24.2339636 33.4508648l34.13722978 0 375.46427271 0c-0.00754247-102.40414686-68.27445955-136.53383417-68.27445955-136.53383417z" fill="#FCEBD2" /></svg>